<svg width="55" height="55" viewBox="0 0 55 55" fill="none" xmlns="http://www.w3.org/2000/svg">
<path d="M25.3028 0.906231L11.9637 14.2453C11.4019 14.8308 11.0921 15.6133 11.1005 16.4247C11.1089 17.2361 11.4349 18.0119 12.0087 18.5857C12.5825 19.1595 13.3584 19.4856 14.1698 19.494C14.9812 19.5024 15.7636 19.1925 16.3492 18.6307L25.3028 9.67889C25.8844 9.09751 26.6732 8.77091 27.4955 8.77091C28.3179 8.77091 29.1066 9.09751 29.6883 9.67889L30.8415 10.8322C31.1273 11.1301 31.4696 11.3679 31.8484 11.5318C32.2272 11.6956 32.6349 11.7822 33.0476 11.7865C33.4604 11.7908 33.8698 11.7126 34.2519 11.5567C34.634 11.4007 34.9812 11.17 35.2731 10.8782C35.5649 10.5864 35.7956 10.2392 35.9515 9.85708C36.1075 9.47496 36.1856 9.06553 36.1813 8.65282C36.177 8.24011 36.0904 7.83241 35.9266 7.4536C35.7627 7.07479 35.5248 6.73249 35.227 6.44677L29.6883 0.907956C29.1066 0.326571 28.3179 0 27.4955 0C26.6732 0 25.8844 0.326571 25.3028 0.907956" fill="#2485E8" fill-opacity="0.33"/>
<path d="M29.6128 54.0913L42.9519 40.7523C43.5136 40.1667 43.8235 39.3843 43.8151 38.5729C43.8067 37.7615 43.4807 36.9857 42.9069 36.4119C42.3331 35.8381 41.5572 35.512 40.7458 35.5036C39.9344 35.4952 39.152 35.8051 38.5664 36.3668L29.6128 45.3204C29.3249 45.6085 28.9831 45.837 28.6069 45.9929C28.2306 46.1489 27.8273 46.2291 27.4201 46.2291C27.0128 46.2291 26.6096 46.1489 26.2333 45.9929C25.8571 45.837 25.5152 45.6085 25.2273 45.3204L24.0741 44.1671C23.7883 43.8693 23.446 43.6314 23.0672 43.4676C22.6884 43.3037 22.2807 43.2171 21.8679 43.2128C21.4552 43.2085 21.0458 43.2866 20.6637 43.4426C20.2816 43.5986 19.9345 43.8293 19.6426 44.1211C19.3508 44.413 19.1201 44.7601 18.9642 45.1423C18.8082 45.5244 18.73 45.9338 18.7343 46.3465C18.7386 46.7592 18.8252 47.1669 18.989 47.5457C19.1529 47.9245 19.3908 48.2668 19.6886 48.5526L25.2273 54.0913C25.5152 54.3794 25.8571 54.6079 26.2333 54.7639C26.6096 54.9198 27.0128 55 27.4201 55C27.8273 55 28.2306 54.9198 28.6069 54.7639C28.9831 54.6079 29.3249 54.3794 29.6128 54.0913Z" fill="#2485E8"/>
<path d="M0.908646 29.7001L14.2477 43.0374C14.8333 43.5992 15.6157 43.9091 16.4271 43.9007C17.2385 43.8922 18.0144 43.5662 18.5882 42.9924C19.162 42.4186 19.488 41.6428 19.4964 40.8313C19.5048 40.0199 19.195 39.2375 18.6332 38.6519L9.68136 29.7001C9.39328 29.4122 9.16477 29.0704 9.00885 28.6941C8.85293 28.3179 8.77261 27.9146 8.77261 27.5074C8.77261 27.1001 8.85293 26.6968 9.00885 26.3206C9.16477 25.9444 9.39328 25.6025 9.68136 25.3146L10.8329 24.1613C11.1308 23.8756 11.3686 23.5333 11.5324 23.1545C11.6963 22.7756 11.783 22.3679 11.7872 21.9552C11.7915 21.5425 11.7133 21.1331 11.5574 20.751C11.4014 20.3689 11.1708 20.0217 10.8789 19.7299C10.5871 19.438 10.24 19.2074 9.85783 19.0514C9.4757 18.8954 9.0663 18.8173 8.65359 18.8216C8.24088 18.8259 7.83315 18.9125 7.45434 19.0763C7.07553 19.2402 6.73321 19.478 6.44748 19.7758L0.908646 25.3146C0.620565 25.6025 0.392053 25.9444 0.236133 26.3206C0.0802138 26.6968 0 27.1001 0 27.5074C0 27.9146 0.0802138 28.3179 0.236133 28.6941C0.392053 29.0704 0.620565 29.4122 0.908646 29.7001Z" fill="#2485E8" fill-opacity="0.33"/>
<path d="M54.0135 25.3011L40.6761 11.9638C40.0905 11.4021 39.3081 11.0922 38.4967 11.1006C37.6853 11.109 36.9095 11.4351 36.3357 12.0089C35.7619 12.5827 35.4358 13.3585 35.4274 14.1699C35.419 14.9813 35.7289 15.7637 36.2906 16.3493L45.2425 25.3011C45.5305 25.589 45.7592 25.9309 45.9151 26.3071C46.071 26.6833 46.1512 27.0866 46.1512 27.4939C46.1512 27.9011 46.071 28.3044 45.9151 28.6806C45.7592 29.0569 45.5305 29.3987 45.2425 29.6866L44.0892 30.84C43.5274 31.4255 43.2174 32.2079 43.2259 33.0194C43.2343 33.8308 43.5604 34.6066 44.1342 35.1804C44.708 35.7542 45.4838 36.0802 46.2952 36.0887C47.1066 36.0971 47.8891 35.7872 48.4746 35.2254L54.0135 29.6866C54.3015 29.3987 54.5301 29.0569 54.686 28.6806C54.8419 28.3044 54.9221 27.9011 54.9221 27.4939C54.9221 27.0866 54.8419 26.6833 54.686 26.3071C54.5301 25.9309 54.3015 25.589 54.0135 25.3011Z" fill="#2485E8" fill-opacity="0.33"/>
</svg>
